<svg xmlns="http://www.w3.org/2000/svg" version="1.1" xmlns:xlink="http://www.w3.org/1999/xlink" xmlns:svgjs="http://svgjs.com/svgjs" width="612px" height="612px"><svg width="612px" height="612px" viewBox="0 0 612 612" version="1.1" xmlns="http://www.w3.org/2000/svg" xmlns:xlink="http://www.w3.org/1999/xlink">
    <!-- Generator: Sketch 64 (93537) - https://sketch.com -->
    <title>Combined Shape</title>
    <desc>Created with Sketch.</desc>
    <g id="SvgjsG1001" stroke="none" stroke-width="1" fill="none" fill-rule="evenodd">
        <path d="M522,0 C571.705627,-9.13077564e-15 612,40.2943725 612,90 L612,522 C612,571.705627 571.705627,612 522,612 L90,612 C40.2943725,612 2.02980385e-14,571.705627 0,522 L0,90 C-6.08718376e-15,40.2943725 40.2943725,2.33416304e-14 90,0 L522,0 Z M254.869318,184.755199 C242.307712,170.797858 220.809857,169.666392 206.852517,182.227999 L206.852517,182.227999 L99.8423624,278.535508 C97.7171957,280.008863 95.7276575,281.749617 93.9226339,283.755199 C81.3610272,297.71254 82.4924932,319.210394 96.449834,331.772001 L96.449834,331.772001 L206.449834,430.772001 L206.8708,431.144742 C220.836238,443.309696 242.030645,442.062568 254.466636,428.244801 C267.028242,414.28746 265.896776,392.789606 251.939436,380.227999 L251.939436,380.227999 L170.221317,306.68 L252.342118,232.772001 L252.75699,232.392488 C266.320719,219.781191 267.305309,198.572966 254.869318,184.755199 Z M403.305402,181.494332 C389.338067,169.716504 368.442312,171.075609 356.130682,184.755199 C343.569075,198.71254 344.700541,220.210394 358.657882,232.772001 L358.657882,232.772001 L440.375317,306.318 L358.255199,380.227999 L357.840328,380.607512 C344.276598,393.218809 343.292008,414.427034 355.727999,428.244801 C368.289606,442.202142 389.78746,443.333608 403.744801,430.772001 L403.744801,430.772001 L510.754955,334.464492 C512.880122,332.991137 514.86966,331.250383 516.674684,329.244801 C529.23629,315.28746 528.104824,293.789606 514.147483,281.227999 L514.147483,281.227999 L404.147483,182.227999 L403.726518,181.855258 Z" id="SvgjsPath1000" fill="#BF1D90"></path>
    </g>
</svg><style>@media (prefers-color-scheme: light) { :root { filter: none; } }
</style></svg>