<?xml version="1.0" encoding="UTF-8"?>
<svg width="585px" height="88px" viewBox="0 0 585 88" version="1.1" xmlns="http://www.w3.org/2000/svg" xmlns:xlink="http://www.w3.org/1999/xlink">
    <!-- Generator: Sketch 64 (93537) - https://sketch.com -->
    <title>spangoss.net</title>
    <desc>Created with Sketch.</desc>
    <g id="Page-1" stroke="none" stroke-width="1" fill="none" fill-rule="evenodd">
        <g id="spangoss.net" transform="translate(0.589844, 0.349609)" fill-rule="nonzero">
            <path d="M23.7792969,67.8222656 C37.890625,67.8222656 47.5097656,60.7910156 47.5097656,50.0488281 C47.5097656,41.9921875 42.8222656,37.5976562 32.3730469,35.3027344 L22.265625,33.1054688 C17.2851562,31.9824219 14.9902344,30.3710938 14.9902344,27.734375 C14.9902344,24.3164062 18.75,22.0214844 23.828125,22.0214844 C29.1015625,22.0214844 32.3730469,24.1699219 33.1054688,27.6367188 L46.2402344,27.6367188 C45.4589844,17.3339844 37.4023438,11.6210938 23.7304688,11.6210938 C10.3027344,11.6210938 1.31835938,18.4082031 1.31835938,28.6132812 C1.31835938,36.9140625 6.39648438,41.8945312 16.8457031,44.1894531 L26.6113281,46.3867188 C31.3476562,47.4121094 33.3984375,49.0234375 33.3984375,51.6601562 C33.3984375,55.1269531 29.5898438,57.421875 24.0722656,57.421875 C18.4082031,57.421875 14.9414063,55.3222656 13.8671875,51.6601562 L0,51.6601562 C0.9765625,62.0117188 9.5703125,67.8222656 23.7792969,67.8222656 Z M65.3886719,84.5214844 L65.3886719,58.3984375 L66.2675781,58.3984375 C68.9042969,64.1113281 74.8125,67.4804688 82.5273438,67.4804688 C96.0039062,67.4804688 104.255859,57.0800781 104.255859,39.6972656 C104.255859,22.265625 95.90625,11.9140625 82.2832031,11.9140625 C74.8613281,11.9140625 68.7578125,15.5761719 65.828125,21.6308594 L64.9492188,21.6308594 L64.9492188,12.7929688 L51.1796875,12.7929688 L51.1796875,84.5214844 L65.3886719,84.5214844 Z M77.4492188,55.6152344 C69.9296875,55.6152344 65.2421875,49.609375 65.2421875,39.7460938 C65.2421875,29.8828125 69.9296875,23.828125 77.4980469,23.828125 C85.0664062,23.828125 89.65625,29.8339844 89.65625,39.6972656 C89.65625,49.6582031 85.1152344,55.6152344 77.4492188,55.6152344 Z M122.574219,67.4804688 C129.556641,67.4804688 135.416016,64.5507812 138.199219,59.6191406 L139.078125,59.6191406 L139.078125,66.6503906 L152.847656,66.6503906 L152.847656,29.8828125 C152.847656,18.359375 144.791016,11.6210938 130.533203,11.6210938 C117.007812,11.6210938 107.876953,17.8710938 106.949219,27.8320312 L120.035156,27.8320312 C121.207031,24.609375 124.625,22.8515625 129.751953,22.8515625 C135.611328,22.8515625 138.833984,25.390625 138.833984,29.8828125 L138.833984,34.2773438 L125.796875,35.0585938 C112.417969,35.8398438 104.947266,41.5039062 104.947266,51.2695312 C104.947266,61.1328125 112.222656,67.4804688 122.574219,67.4804688 Z M127.261719,56.7871094 C122.330078,56.7871094 118.863281,54.3457031 118.863281,50.3417969 C118.863281,46.484375 121.841797,44.2871094 127.945312,43.8476562 L138.833984,43.1640625 L138.833984,47.1191406 C138.833984,52.5878906 133.853516,56.7871094 127.261719,56.7871094 Z M173.021484,66.6503906 L173.021484,35.5957031 C173.021484,28.515625 177.074219,23.8769531 183.666016,23.8769531 C190.404297,23.8769531 193.578125,27.7832031 193.578125,35.2050781 L193.578125,66.6503906 L207.787109,66.6503906 L207.787109,31.8359375 C207.787109,18.9453125 201.341797,11.6210938 189.378906,11.6210938 C181.419922,11.6210938 175.951172,15.3808594 173.460938,21.4355469 L172.582031,21.4355469 L172.582031,12.7929688 L158.8125,12.7929688 L158.8125,66.6503906 L173.021484,66.6503906 Z M237.287109,87.0605469 C253.546875,87.0605469 263.849609,79.1015625 263.849609,66.4550781 L263.849609,12.7929688 L250.080078,12.7929688 L250.080078,21.4355469 L249.201172,21.4355469 C246.320312,15.5273438 240.119141,11.9140625 232.84375,11.9140625 C219.171875,11.9140625 210.773438,22.5585938 210.773438,39.2578125 C210.773438,55.46875 219.123047,65.8691406 232.550781,65.8691406 C240.119141,65.8691406 245.783203,62.8417969 248.761719,57.1777344 L249.640625,57.1777344 L249.640625,67.1386719 C249.640625,73.1933594 245.197266,76.7089844 237.580078,76.7089844 C231.427734,76.7089844 227.423828,74.609375 226.691406,71.2890625 L212.628906,71.2890625 C213.507812,80.7617188 222.980469,87.0605469 237.287109,87.0605469 Z M237.482422,54.6386719 C229.767578,54.6386719 225.373047,48.7304688 225.373047,39.2089844 C225.373047,29.7851562 229.816406,23.828125 237.482422,23.828125 C245.148438,23.828125 249.787109,29.7851562 249.787109,39.2578125 C249.787109,48.7304688 245.197266,54.6386719 237.482422,54.6386719 Z M293.984375,67.8222656 C310.537109,67.8222656 320.498047,57.3242188 320.498047,39.6972656 C320.498047,22.2167969 310.390625,11.6210938 293.984375,11.6210938 C277.578125,11.6210938 267.470703,22.265625 267.470703,39.6972656 C267.470703,57.3242188 277.431641,67.8222656 293.984375,67.8222656 Z M293.984375,56.2011719 C286.367188,56.2011719 282.070312,50.1953125 282.070312,39.6972656 C282.070312,29.3457031 286.416016,23.2421875 293.984375,23.2421875 C301.503906,23.2421875 305.898438,29.3457031 305.898438,39.6972656 C305.898438,50.1464844 301.552734,56.2011719 293.984375,56.2011719 Z M345.310547,67.8222656 C359.421875,67.8222656 369.041016,60.7910156 369.041016,50.0488281 C369.041016,41.9921875 364.353516,37.5976562 353.904297,35.3027344 L343.796875,33.1054688 C338.816406,31.9824219 336.521484,30.3710938 336.521484,27.734375 C336.521484,24.3164062 340.28125,22.0214844 345.359375,22.0214844 C350.632812,22.0214844 353.904297,24.1699219 354.636719,27.6367188 L367.771484,27.6367188 C366.990234,17.3339844 358.933594,11.6210938 345.261719,11.6210938 C331.833984,11.6210938 322.849609,18.4082031 322.849609,28.6132812 C322.849609,36.9140625 327.927734,41.8945312 338.376953,44.1894531 L348.142578,46.3867188 C352.878906,47.4121094 354.929688,49.0234375 354.929688,51.6601562 C354.929688,55.1269531 351.121094,57.421875 345.603516,57.421875 C339.939453,57.421875 336.472656,55.3222656 335.398438,51.6601562 L321.53125,51.6601562 C322.507812,62.0117188 331.101562,67.8222656 345.310547,67.8222656 Z M392.974609,67.8222656 C407.085938,67.8222656 416.705078,60.7910156 416.705078,50.0488281 C416.705078,41.9921875 412.017578,37.5976562 401.568359,35.3027344 L391.460938,33.1054688 C386.480469,31.9824219 384.185547,30.3710938 384.185547,27.734375 C384.185547,24.3164062 387.945312,22.0214844 393.023438,22.0214844 C398.296875,22.0214844 401.568359,24.1699219 402.300781,27.6367188 L415.435547,27.6367188 C414.654297,17.3339844 406.597656,11.6210938 392.925781,11.6210938 C379.498047,11.6210938 370.513672,18.4082031 370.513672,28.6132812 C370.513672,36.9140625 375.591797,41.8945312 386.041016,44.1894531 L395.806641,46.3867188 C400.542969,47.4121094 402.59375,49.0234375 402.59375,51.6601562 C402.59375,55.1269531 398.785156,57.421875 393.267578,57.421875 C387.603516,57.421875 384.136719,55.3222656 383.0625,51.6601562 L369.195312,51.6601562 C370.171875,62.0117188 378.765625,67.8222656 392.974609,67.8222656 Z" id="spangoss" fill="#FFFFFF"></path>
            <path d="M430.628906,67.96875 C435.902344,67.96875 439.271484,64.4042969 439.271484,59.4726562 C439.271484,54.5410156 435.902344,51.0253906 430.628906,51.0253906 C425.404297,51.0253906 421.986328,54.5410156 421.986328,59.4726562 C421.986328,64.4042969 425.404297,67.96875 430.628906,67.96875 Z M461.349609,66.6503906 L461.349609,35.5957031 C461.349609,28.515625 465.402344,23.8769531 471.994141,23.8769531 C478.732422,23.8769531 481.90625,27.7832031 481.90625,35.2050781 L481.90625,66.6503906 L496.115234,66.6503906 L496.115234,31.8359375 C496.115234,18.9453125 489.669922,11.6210938 477.707031,11.6210938 C469.748047,11.6210938 464.279297,15.3808594 461.789062,21.4355469 L460.910156,21.4355469 L460.910156,12.7929688 L447.140625,12.7929688 L447.140625,66.6503906 L461.349609,66.6503906 Z M525.322266,67.8222656 C538.505859,67.8222656 547.783203,61.4746094 549.931641,51.3183594 L536.699219,51.3183594 C535.185547,54.8828125 531.328125,56.8847656 525.712891,56.8847656 C518.291016,56.8847656 513.603516,51.9042969 513.408203,43.8964844 L513.408203,43.1640625 L550.371094,43.1640625 L550.371094,38.8183594 C550.371094,21.7285156 540.996094,11.6210938 525.126953,11.6210938 C509.111328,11.6210938 499.248047,22.4609375 499.248047,39.9902344 C499.248047,57.4707031 508.916016,67.8222656 525.322266,67.8222656 Z M536.40625,34.0820312 L513.457031,34.0820312 C513.945312,27.0996094 518.583984,22.5097656 525.175781,22.5097656 C531.816406,22.5097656 536.113281,26.953125 536.40625,34.0820312 Z M576.306641,66.8457031 C579.041016,66.8457031 581.677734,66.5527344 583.435547,66.2109375 L583.435547,55.3710938 C582.068359,55.5175781 581.091797,55.5664062 579.236328,55.5664062 C574.402344,55.5664062 572.253906,53.4179688 572.253906,48.7304688 L572.253906,24.5117188 L583.435547,24.5117188 L583.435547,13.3300781 L572.253906,13.3300781 L572.253906,0 L558.044922,0 L558.044922,13.3300781 L549.646484,13.3300781 L549.646484,24.5117188 L558.044922,24.5117188 L558.044922,52.0996094 C558.044922,62.5976562 563.220703,66.8457031 576.306641,66.8457031 Z" id=".net" fill="#BF1D90"></path>
        </g>
    </g>
</svg>