<?xml version="1.0" standalone="no"?>
<!DOCTYPE svg PUBLIC "-//W3C//DTD SVG 20010904//EN"
 "http://www.w3.org/TR/2001/REC-SVG-20010904/DTD/svg10.dtd">
<svg version="1.0" xmlns="http://www.w3.org/2000/svg"
 width="700.000000pt" height="700.000000pt" viewBox="0 0 700.000000 700.000000"
 preserveAspectRatio="xMidYMid meet">
<metadata>
Created by potrace 1.14, written by Peter Selinger 2001-2017
</metadata>
<g transform="translate(0.000000,700.000000) scale(0.100000,-0.100000)"
fill="#000000" stroke="none">
<path d="M1239 6996 c-2 -2 -26 -7 -54 -10 -206 -26 -448 -123 -615 -247 -283
-209 -461 -482 -543 -834 l-21 -90 -2 -2285 c-2 -2160 -1 -2291 16 -2387 77
-442 365 -821 765 -1009 108 -50 189 -78 310 -107 l90 -21 2280 -3 c1978 -2
2292 0 2370 13 363 60 669 243 885 529 137 182 205 339 266 615 12 53 15 4561
3 4645 -55 396 -265 732 -605 968 -62 43 -236 128 -319 155 -75 25 -180 50
-265 62 -61 8 -4552 14 -4561 6z m1001 -1081 c199 -39 284 -140 281 -336 -1
-71 -24 -135 -64 -178 -48 -50 -106 -74 -327 -132 -150 -40 -230 -117 -264
-254 -23 -89 -26 -146 -27 -544 -2 -401 -10 -472 -66 -587 -64 -130 -216 -231
-393 -260 -19 -4 -42 -8 -50 -9 -8 -2 -27 -4 -42 -4 -26 -1 -28 -4 -28 -46 0
-40 3 -45 23 -46 12 0 29 -2 37 -4 8 -2 33 -6 55 -10 162 -28 317 -142 389
-288 65 -133 68 -158 72 -597 4 -509 8 -580 41 -670 24 -68 67 -124 120 -159
43 -28 170 -74 240 -87 104 -19 210 -75 244 -130 47 -76 55 -202 18 -299 -39
-104 -120 -160 -274 -191 -49 -9 -308 -12 -371 -3 -33 5 -81 11 -109 15 -27 3
-87 17 -133 30 -364 106 -574 376 -618 795 -3 35 -8 253 -9 484 -3 431 -5 464
-30 548 -35 117 -83 166 -221 224 -188 78 -265 189 -265 381 0 208 75 321 268
399 53 22 110 53 133 73 43 38 86 123 95 185 4 22 9 49 12 60 3 11 7 196 8
410 2 316 6 409 20 489 39 225 109 372 239 500 179 176 429 255 791 251 94 -2
186 -6 205 -10z m2940 -1 c415 -59 662 -257 759 -607 39 -139 47 -234 49 -549
1 -448 1 -445 26 -574 8 -41 48 -113 83 -148 21 -20 67 -48 112 -67 146 -60
209 -110 253 -201 32 -65 42 -119 41 -219 -1 -198 -90 -308 -313 -393 -107
-41 -167 -134 -190 -297 -5 -37 -11 -248 -12 -468 -1 -403 -6 -481 -33 -625
-14 -71 -71 -215 -112 -283 -46 -75 -139 -179 -203 -225 -86 -62 -248 -131
-355 -153 -121 -23 -155 -27 -307 -30 -151 -2 -267 11 -344 40 -127 48 -186
150 -181 309 7 173 73 232 327 291 156 37 250 96 294 188 49 100 55 166 59
652 3 422 5 455 25 528 38 137 94 229 186 303 73 59 175 107 261 121 17 3 37
7 45 8 8 2 25 4 38 4 19 1 22 6 22 46 0 42 -2 45 -27 46 -16 0 -37 2 -48 4
-11 2 -36 7 -55 10 -19 4 -35 6 -35 5 0 -3 -131 48 -155 61 -86 47 -150 112
-190 194 -60 123 -63 143 -67 580 -2 220 -8 436 -14 480 -20 145 -88 249 -193
295 -22 10 -95 33 -161 50 -196 53 -254 88 -294 183 -28 64 -24 200 6 269 44
97 134 156 270 174 26 3 49 7 51 9 9 8 304 1 382 -11z m-1410 -947 c14 -3 48
-8 75 -12 141 -18 338 -80 476 -150 231 -117 351 -286 336 -471 -12 -155 -117
-249 -290 -261 -121 -9 -205 19 -440 146 -169 91 -298 129 -439 129 -219 0
-356 -91 -375 -248 -13 -107 39 -191 150 -243 73 -35 116 -46 490 -121 172
-35 355 -78 407 -95 226 -75 385 -189 483 -343 34 -53 80 -167 91 -223 4 -16
9 -41 12 -55 12 -55 11 -263 -3 -340 -77 -447 -455 -735 -1048 -798 -92 -9
-442 -9 -525 1 -208 25 -369 65 -520 131 -310 134 -469 350 -428 580 19 101
70 166 168 213 47 22 68 26 145 26 109 1 173 -22 340 -121 259 -154 415 -206
620 -205 178 1 305 49 369 140 57 82 46 201 -27 280 -73 80 -195 129 -432 177
-38 8 -79 17 -90 19 -11 3 -76 17 -145 31 -179 38 -272 64 -374 104 -347 135
-530 378 -541 717 -7 251 64 451 222 624 183 201 503 342 832 368 42 3 78 7
80 9 5 4 352 -4 381 -9z"/>
</g>
</svg>
