<?xml version="1.0" standalone="no"?>
<!DOCTYPE svg PUBLIC "-//W3C//DTD SVG 20010904//EN"
 "http://www.w3.org/TR/2001/REC-SVG-20010904/DTD/svg10.dtd">
<svg version="1.0" xmlns="http://www.w3.org/2000/svg"
 width="700.000000pt" height="700.000000pt" viewBox="0 0 700.000000 700.000000"
 preserveAspectRatio="xMidYMid meet">
<metadata>
Created by potrace 1.14, written by Peter Selinger 2001-2017
</metadata>
<g transform="translate(0.000000,700.000000) scale(0.100000,-0.100000)"
fill="#000000" stroke="none">
<path d="M1447 5734 c-1 -1 -40 -4 -87 -7 -335 -23 -556 -143 -657 -357 -36
-75 -62 -162 -78 -255 -11 -71 -17 -222 -20 -555 -1 -195 -5 -366 -9 -380 -3
-14 -9 -38 -12 -55 -36 -167 -204 -251 -506 -254 l-78 -1 0 -385 0 -385 73 0
c172 -1 313 -32 396 -88 44 -30 63 -52 87 -100 17 -34 35 -84 39 -110 4 -26 9
-204 11 -397 3 -406 7 -487 33 -610 31 -150 79 -251 160 -338 78 -84 272 -175
411 -192 30 -4 57 -8 60 -10 30 -18 729 -28 731 -10 1 5 2 142 3 304 1 188 -3
295 -9 297 -5 1 -89 4 -185 6 -164 4 -179 5 -232 30 -86 40 -118 99 -133 247
-4 36 -7 243 -7 460 -1 428 -5 476 -53 574 -30 60 -88 128 -150 174 -83 61
-260 120 -367 123 -12 0 -18 8 -18 24 0 20 6 24 48 30 80 11 104 16 180 42
137 46 247 135 302 244 54 106 56 137 58 605 1 543 10 600 107 666 56 38 134
52 298 53 78 1 147 4 152 8 8 5 13 520 6 595 -1 8 -74 11 -277 10 -151 -1
-276 -2 -277 -3z"/>
<path d="M5025 5432 l0 -307 140 -1 c215 -2 262 -11 332 -62 27 -20 60 -72 67
-106 24 -113 25 -144 26 -575 1 -247 5 -424 12 -455 45 -216 208 -352 483
-405 75 -15 90 -21 90 -36 0 -15 -13 -21 -70 -32 -133 -25 -154 -31 -242 -75
-82 -40 -180 -132 -216 -204 -53 -106 -56 -134 -57 -589 0 -232 -2 -430 -4
-441 -2 -10 -7 -40 -10 -65 -14 -105 -55 -166 -134 -202 -41 -18 -72 -21 -233
-25 l-185 -4 0 -307 1 -306 265 1 c467 1 610 22 794 117 97 50 180 132 228
224 31 58 66 148 59 148 -1 0 2 12 8 26 28 75 39 228 40 594 2 387 4 424 28
509 45 163 204 242 496 245 l57 1 0 385 0 385 -57 1 c-235 2 -394 57 -457 157
-49 80 -59 133 -63 352 -12 741 -9 678 -34 800 -27 139 -88 261 -174 345 -100
98 -222 153 -415 184 -140 23 -86 20 -460 26 l-316 4 1 -307z"/>
<path d="M3437 5215 c-1 -2 -38 -5 -82 -9 -498 -39 -855 -275 -999 -658 -44
-115 -58 -196 -62 -343 -6 -239 44 -416 162 -577 73 -99 211 -209 345 -274 66
-32 247 -99 292 -108 12 -3 63 -14 112 -24 50 -11 178 -39 285 -62 402 -87
508 -156 518 -339 5 -101 -22 -176 -87 -240 -44 -44 -132 -95 -182 -105 -13
-3 -35 -8 -49 -12 -50 -13 -245 -12 -315 1 -137 27 -219 67 -284 141 -41 47
-79 130 -83 184 l-2 30 -392 0 -391 0 3 -42 c17 -222 72 -378 188 -532 92
-121 202 -210 349 -280 225 -109 469 -156 787 -151 183 3 250 10 385 37 131
27 211 52 311 98 328 151 514 400 573 765 17 101 7 348 -17 435 -61 219 -172
363 -377 486 -99 60 -301 137 -415 159 -8 2 -33 8 -55 14 -44 11 -322 70 -370
77 -16 3 -64 14 -105 25 -213 56 -311 126 -347 248 -72 248 112 429 422 416
237 -10 386 -117 426 -307 6 -29 15 -55 19 -58 7 -4 687 -5 753 -1 15 1 17 9
12 68 -19 234 -120 449 -284 606 -69 65 -192 153 -256 182 -162 73 -243 99
-406 128 -75 14 -371 30 -382 22z"/>
</g>
</svg>
