<?xml version="1.0" standalone="no"?>
<!DOCTYPE svg PUBLIC "-//W3C//DTD SVG 20010904//EN"
 "http://www.w3.org/TR/2001/REC-SVG-20010904/DTD/svg10.dtd">
<svg version="1.0" xmlns="http://www.w3.org/2000/svg"
 width="255.000000pt" height="255.000000pt" viewBox="0 0 255.000000 255.000000"
 preserveAspectRatio="xMidYMid meet">
<metadata>
Created by potrace 1.14, written by Peter Selinger 2001-2017
</metadata>
<g transform="translate(0.000000,255.000000) scale(0.100000,-0.100000)"
fill="#000000" stroke="none">
<path d="M515 2203 c-135 -23 -225 -69 -272 -142 -27 -42 -35 -62 -49 -126 -3
-11 -6 -97 -8 -192 -3 -143 -7 -178 -22 -209 -24 -48 -59 -73 -106 -76 l-38
-3 0 -157 0 -158 33 0 c17 0 47 -9 65 -20 55 -34 63 -70 67 -286 3 -211 16
-281 63 -344 51 -69 102 -100 202 -126 59 -15 319 -27 321 -15 4 20 3 241 -1
242 -3 0 -34 3 -70 5 -85 7 -130 29 -153 76 -16 32 -19 69 -22 235 -2 171 -6
204 -23 243 -30 70 -90 116 -174 134 -16 4 -28 11 -28 16 0 6 12 10 28 10 33
0 121 40 144 66 42 48 51 92 53 279 2 140 7 189 20 222 23 58 73 80 185 82
l45 1 0 123 0 122 -120 1 c-66 0 -129 -1 -140 -3z"/>
<path d="M1769 2208 c-1 -1 -2 -58 -3 -125 l-2 -123 51 -1 c64 -1 90 -6 130
-25 58 -27 67 -63 71 -268 1 -100 7 -196 13 -213 19 -64 73 -117 131 -130 8
-2 22 -5 30 -8 8 -2 23 -4 33 -4 35 -2 15 -20 -40 -36 -71 -21 -132 -79 -152
-145 -9 -29 -15 -108 -16 -220 -3 -203 -8 -240 -41 -271 -28 -26 -97 -45 -159
-44 -24 1 -46 -3 -48 -9 -3 -10 -1 -182 2 -227 1 -15 16 -16 129 -13 262 7
384 70 433 224 18 55 22 96 24 260 5 255 20 293 125 307 l40 6 -2 155 -3 156
-35 3 c-46 5 -81 31 -103 75 -15 30 -18 68 -21 211 -4 185 -18 263 -59 322
-69 99 -179 139 -399 144 -71 1 -129 1 -129 -1z"/>
<path d="M1103 1815 c-198 -42 -323 -176 -323 -345 0 -144 75 -246 219 -301
31 -11 127 -36 213 -55 183 -40 203 -47 218 -85 18 -41 5 -74 -37 -101 -31
-19 -52 -23 -113 -23 -90 0 -143 21 -171 69 l-19 33 -169 0 -168 1 4 -37 c7
-54 51 -139 95 -182 87 -84 213 -123 403 -123 191 -1 267 17 382 92 170 110
206 369 68 490 -66 59 -119 78 -336 122 -186 38 -232 56 -247 98 -12 36 0 66
41 96 21 15 45 21 100 22 87 3 132 -16 162 -66 l20 -35 155 1 155 0 -2 44 c-6
132 -130 247 -305 284 -81 17 -265 17 -345 1z"/>
</g>
</svg>
