<?xml version="1.0" standalone="no"?>
<!DOCTYPE svg PUBLIC "-//W3C//DTD SVG 20010904//EN"
 "http://www.w3.org/TR/2001/REC-SVG-20010904/DTD/svg10.dtd">
<svg version="1.0" xmlns="http://www.w3.org/2000/svg"
 width="700.000000pt" height="700.000000pt" viewBox="0 0 700.000000 700.000000"
 preserveAspectRatio="xMidYMid meet">
<metadata>
Created by potrace 1.14, written by Peter Selinger 2001-2017
</metadata>
<g transform="translate(0.000000,700.000000) scale(0.100000,-0.100000)"
fill="#000000" stroke="none">
<path d="M1585 6303 c-439 -52 -716 -226 -865 -545 -21 -45 -48 -117 -60 -158
-47 -170 -52 -232 -60 -740 -6 -397 -10 -496 -24 -548 -38 -148 -95 -213 -240
-273 -153 -65 -211 -105 -261 -183 -55 -88 -70 -146 -70 -281 0 -99 4 -131 23
-185 46 -131 109 -190 296 -272 122 -53 173 -94 212 -170 54 -106 56 -131 64
-723 8 -587 12 -636 64 -815 84 -288 265 -498 526 -611 173 -75 368 -109 621
-109 244 0 384 33 473 110 130 115 140 404 18 512 -51 44 -117 72 -267 112
-159 42 -210 62 -269 103 -81 57 -132 151 -157 285 -7 38 -14 277 -19 603 -8
603 -7 597 -82 753 -89 188 -288 321 -523 350 l-60 7 -3 47 -3 47 38 6 c205
33 308 68 406 138 73 53 123 115 166 208 55 118 61 178 61 601 1 640 21 762
145 877 60 55 120 81 290 125 150 39 223 68 272 110 127 107 119 400 -13 516
-92 81 -229 111 -493 109 -97 -1 -189 -4 -206 -6z"/>
<path d="M4932 6294 c-151 -30 -239 -90 -288 -196 -25 -56 -28 -74 -29 -168 0
-96 3 -110 29 -163 47 -97 116 -137 336 -194 74 -19 162 -48 196 -64 67 -31
130 -93 163 -158 52 -100 54 -123 61 -661 8 -553 12 -594 70 -719 96 -205 240
-292 573 -346 l38 -6 -3 -47 -3 -47 -60 -7 c-234 -29 -434 -162 -523 -349 -82
-170 -91 -261 -92 -871 0 -472 -6 -534 -60 -644 -57 -116 -142 -169 -370 -229
-154 -41 -221 -69 -272 -113 -122 -108 -112 -397 18 -512 89 -77 229 -110 473
-110 185 0 288 11 431 46 208 52 343 126 480 263 105 107 174 220 223 368 65
200 69 237 77 853 8 591 10 607 60 715 42 88 88 127 218 184 179 79 243 138
292 270 45 117 35 302 -20 420 -51 106 -114 154 -337 251 -65 29 -125 89 -157
160 -47 104 -56 197 -56 607 0 425 -10 570 -50 730 -110 435 -412 682 -910
743 -122 15 -420 11 -508 -6z"/>
<path d="M3440 5213 c-269 -12 -567 -81 -751 -173 -262 -132 -464 -344 -548
-576 -50 -137 -64 -237 -58 -409 4 -123 10 -166 31 -240 83 -277 272 -464 600
-595 103 -41 253 -79 563 -145 318 -67 416 -95 508 -143 135 -71 190 -149 190
-272 0 -64 -4 -82 -27 -121 -72 -123 -211 -179 -443 -179 -244 -1 -400 50
-707 232 -64 38 -145 82 -180 97 -328 149 -636 -55 -579 -385 73 -422 702
-708 1496 -681 209 8 342 25 512 67 271 68 464 170 629 335 139 139 215 277
266 482 28 117 31 367 4 488 -48 218 -176 407 -356 526 -175 116 -331 167
-811 264 -419 84 -459 95 -541 136 -119 60 -168 129 -168 238 0 83 14 128 59
187 93 122 307 172 536 125 114 -23 233 -72 407 -168 274 -150 437 -176 604
-97 59 28 128 98 151 151 57 138 22 315 -89 450 -161 195 -525 351 -913 392
-106 11 -293 18 -385 14z"/>
</g>
</svg>
