<?xml version="1.0" encoding="UTF-8"?>
<svg width="255px" height="255px" viewBox="0 0 255 255" version="1.1" xmlns="http://www.w3.org/2000/svg" xmlns:xlink="http://www.w3.org/1999/xlink">
    <!-- Generator: Sketch 64 (93537) - https://sketch.com -->
    <title>Artboard</title>
    <desc>Created with Sketch.</desc>
    <g id="Artboard" stroke="none" stroke-width="1" fill="none" fill-rule="evenodd">
        <path d="M77.4804213,220.540162 L77.4804213,195.514031 L72.9576264,195.514031 C56.876578,195.514031 52.5547962,191.292755 52.5547962,175.613733 L52.5547962,152.497226 C52.5547962,136.91871 44.8157916,127.471094 30.1418348,126.265016 L30.1418348,124.355391 C45.619844,122.948299 52.5547962,115.209295 52.5547962,100.434832 L52.5547962,79.0269358 C52.5547962,63.3479135 56.7760714,59.1266383 72.9576264,59.1266383 L77.4804213,59.1266383 L77.4804213,34 L64.6155825,34 C31.5489266,34 18.4830747,45.0557208 18.4830747,72.9965426 L18.4830747,88.876578 C18.4830747,104.455094 14.362306,109.681434 2,109.681434 L2,140.838466 C14.4628126,140.838466 18.4830747,145.863794 18.4830747,161.442309 L18.4830747,180.639061 C18.4830747,209.182922 31.7499397,220.540162 64.6155825,220.540162 L77.4804213,220.540162 Z M127.452279,188.981105 C158.709817,188.981105 179.112648,174.106135 179.112648,150.889121 C179.112648,133.903514 169.564525,124.757417 147.55359,120.134116 L124.437083,115.410308 C115.592506,113.500683 111.572244,110.6865 111.572244,105.962692 C111.572244,99.9322988 118.004664,95.9120367 127.251266,95.9120367 C136.899895,95.9120367 142.829782,99.8317922 143.834848,106.364718 L176.197958,106.364718 C174.891373,83.8512503 157.905765,71.8909705 126.949747,71.8909705 C96.7977808,71.8909705 77.8020423,85.9618879 77.8020423,108.173836 C77.8020423,125.762483 88.7572566,136.717697 110.969205,141.441505 L131.774061,145.863794 C140.719144,147.773418 144.035861,150.286082 144.035861,155.00989 C144.035861,161.040283 137.703948,164.960039 127.954812,164.960039 C117.502131,164.960039 111.170218,161.241296 109.3611,154.306344 L75.0883654,154.306344 C77.0984964,176.819812 95.3906891,188.981105 127.452279,188.981105 Z M189.384417,220.540162 C222.350567,220.540162 235.617432,209.182922 235.617432,180.639061 L235.617432,161.442309 C235.617432,145.863794 239.637694,140.838466 252,140.838466 L252,109.681434 C239.738201,109.681434 235.617432,104.455094 235.617432,88.876578 L235.617432,72.9965426 C235.617432,45.0557208 222.55158,34 189.384417,34 L176.519579,34 L176.519579,59.1266383 L181.042374,59.1266383 C197.223929,59.1266383 201.54571,63.3479135 201.54571,79.0269358 L201.54571,100.434832 C201.54571,115.209295 208.380156,122.948299 223.958672,124.355391 L223.958672,126.265016 C209.284715,127.471094 201.54571,136.91871 201.54571,152.497226 L201.54571,175.613733 C201.54571,191.292755 197.123422,195.514031 181.042374,195.514031 L176.519579,195.514031 L176.519579,220.540162 L189.384417,220.540162 Z" id="{s}" fill="#BF1D90" fill-rule="nonzero"></path>
    </g>
</svg>